<?xml version="1.0" encoding="UTF-8"?>
<svg id="Ebene_1" data-name="Ebene 1" xmlns="http://www.w3.org/2000/svg" version="1.1" viewBox="0 0 500 200">
  <defs>
    <style>
      .cls-1 {
        fill: #000;
      }

      .cls-1, .cls-2, .cls-3, .cls-4 {
        stroke-width: 0px;
      }

      .cls-2 {
        fill: #070909;
      }

      .cls-3 {
        fill: #ffe600;
      }

      .cls-4 {
        fill: #f03;
      }
    </style>
  </defs>
  <path class="cls-1" d="M201.1,52.2c5.2,0,8.3,3.5,8.3,8v8.2c0,4.6-3.1,8-8.3,8h-7.5v-24.2h7.5ZM197.7,72.4h3.3c2.7,0,4.2-1.7,4.2-4.1v-8.2c0-2.4-1.5-4.1-4.2-4.1h-3.3v16.4Z"/>
  <polygon class="cls-1" points="222.8 56.1 222.8 62 230 62 230 65.9 222.8 65.9 222.8 72.4 232.1 72.4 232.1 76.3 218.7 76.3 218.7 52.2 232.1 52.2 232.1 56.1 222.8 56.1"/>
  <path class="cls-1" d="M256.9,52.2v16.4c0,4.6-3,8.3-8,8.3s-8-3.7-8-8.3v-16.4h4.2v16.5c0,2.5,1.4,4.3,3.9,4.3s3.9-1.9,3.9-4.3v-16.5h4.2Z"/>
  <polygon class="cls-1" points="280.5 56.1 274.7 56.1 274.7 76.3 270.6 76.3 270.6 56.1 264.7 56.1 264.7 52.2 280.5 52.2 280.5 56.1"/>
  <path class="cls-1" d="M298.5,59.2c0-2.4-1.7-3.7-3.5-3.7s-3.2.9-3.2,2.7,1.4,2.7,3.3,3.4l2.2.8c3.4,1.3,5.8,3.4,5.8,7.2s-3.9,7.2-8,7.2-8.1-2.7-8.1-7.9v-.5h4.2v.5c0,2.4,1.6,4,3.9,4s3.8-1.1,3.8-3.1-1.6-2.9-3.5-3.6l-2.2-.8c-3.7-1.5-5.6-3.4-5.6-6.9s3-6.9,7.3-6.9,7.6,3.1,7.6,7.4v.7h-4.1v-.5Z"/>
  <path class="cls-1" d="M327.5,68.6c0,4.6-3.1,8.3-8.2,8.3s-8.1-3.7-8.1-8.3v-8.7c0-4.5,3-8.3,8.1-8.3s8.1,3.7,8.1,8.2h0c0,.1-4.1.1-4.1.1v-.2c0-2.4-1.5-4.3-3.9-4.3s-3.9,2-3.9,4.4v8.7c0,2.4,1.4,4.4,3.9,4.4s4-1.9,4-4.3v-.4h4.2v.4Z"/>
  <polygon class="cls-1" points="352.2 52.2 352.2 76.3 348 76.3 348 65.9 340.2 65.9 340.2 76.3 336.1 76.3 336.1 52.2 340.2 52.2 340.2 62 348 62 348 52.2 352.2 52.2"/>
  <polygon class="cls-1" points="366.2 56.1 366.2 62 373.4 62 373.4 65.9 366.2 65.9 366.2 72.4 375.4 72.4 375.4 76.3 362 76.3 362 52.2 375.4 52.2 375.4 56.1 366.2 56.1"/>
  <path class="cls-1" d="M389.8,65.9h-1.2v10.5h-4.2v-24.2h7.1c5.2,0,7.3,3.5,7.3,6.8s-1.4,5.6-4.8,6.5l7.1,10.8h-4.9l-6.5-10.5ZM388.5,62h2.9c2,0,3.2-1.2,3.2-3s-1.1-2.9-3.2-2.9h-2.9v5.9Z"/>
  <polygon class="cls-2" points="197.8 110.3 206.4 110.3 206.4 114.2 193.6 114.2 193.6 90 197.8 90 197.8 110.3"/>
  <polygon class="cls-1" points="218.5 93.9 218.5 99.8 225.7 99.8 225.7 103.7 218.5 103.7 218.5 110.3 227.7 110.3 227.7 114.2 214.3 114.2 214.3 90 227.7 90 227.7 93.9 218.5 93.9"/>
  <rect class="cls-1" x="236.7" y="90" width="4.2" height="24.2"/>
  <path class="cls-1" d="M266.4,106.5c0,4.6-3.1,8.3-8.2,8.3s-8.1-3.7-8.1-8.3v-8.7c0-4.5,3-8.3,8.1-8.3s8.1,3.7,8.1,8.2h0c0,.1-4.2.1-4.2.1v-.2c0-2.4-1.5-4.3-3.9-4.3s-3.9,2-3.9,4.4v8.7c0,2.4,1.4,4.4,3.9,4.4s4-1.9,4-4.3v-.4h4.2v.4Z"/>
  <polygon class="cls-1" points="291.1 90 291.1 114.2 286.9 114.2 286.9 103.7 279.1 103.7 279.1 114.2 275 114.2 275 90 279.1 90 279.1 99.8 286.9 99.8 286.9 90 291.1 90"/>
  <polygon class="cls-1" points="314.9 93.9 309.1 93.9 309.1 114.2 305 114.2 305 93.9 299.1 93.9 299.1 90 314.9 90 314.9 93.9"/>
  <path class="cls-1" d="M332,109.1h-7.3l-1.4,5.1h-4.4l7.5-24.2h4.1l7.4,24.2h-4.4l-1.4-5.1ZM330.9,105.2l-2.6-9.1-2.6,9.1h5.1Z"/>
  <polygon class="cls-1" points="357.6 93.9 351.8 93.9 351.8 114.2 347.7 114.2 347.7 93.9 341.8 93.9 341.8 90 357.6 90 357.6 93.9"/>
  <polygon class="cls-1" points="381.7 90 381.7 114.2 377.6 114.2 377.6 103.7 369.8 103.7 369.8 114.2 365.7 114.2 365.7 90 369.8 90 369.8 99.8 377.6 99.8 377.6 90 381.7 90"/>
  <polygon class="cls-1" points="395.7 110.3 404.4 110.3 404.4 114.2 391.6 114.2 391.6 90 395.7 90 395.7 110.3"/>
  <polygon class="cls-1" points="416.5 93.9 416.5 99.8 423.7 99.8 423.7 103.7 416.5 103.7 416.5 110.3 425.7 110.3 425.7 114.2 412.3 114.2 412.3 90 425.7 90 425.7 93.9 416.5 93.9"/>
  <polygon class="cls-1" points="448.7 93.9 442.9 93.9 442.9 114.2 438.7 114.2 438.7 93.9 432.9 93.9 432.9 90 448.7 90 448.7 93.9"/>
  <rect class="cls-1" x="456.7" y="90" width="4.1" height="24.2"/>
  <polygon class="cls-1" points="476.8 103.6 474.9 106.5 474.9 114.2 470.7 114.2 470.7 90 474.9 90 474.9 100.6 481.8 90 486.7 90 479.6 100.5 487.3 114.2 482.5 114.2 476.8 103.6"/>
  <polygon class="cls-1" points="210.4 127.9 202.9 152 198.8 152 191.4 127.9 195.8 127.9 200.9 145.5 206 127.9 210.4 127.9"/>
  <polygon class="cls-1" points="222.1 131.8 222.1 137.7 229.3 137.7 229.3 141.6 222.1 141.6 222.1 148.1 231.4 148.1 231.4 152 218 152 218 127.9 231.4 127.9 231.4 131.8 222.1 131.8"/>
  <path class="cls-1" d="M245.7,141.5h-1.2v10.5h-4.2v-24.2h7.1c5.2,0,7.3,3.5,7.3,6.8s-1.4,5.6-4.8,6.5l7.1,10.8h-4.9l-6.5-10.5ZM244.5,137.6h3c2,0,3.2-1.2,3.2-3s-1.1-2.9-3.2-2.9h-3v5.9Z"/>
  <path class="cls-1" d="M280.4,144.8c0,3.8-2.4,7.2-7.3,7.2h-8.6v-24.2h7.2c5.2,0,7.2,3.3,7.2,6.5s-.6,3.4-2,4.5c2.4,1.2,3.6,3.5,3.6,6M268.6,131.7v5.9h2.8c2.1,0,3.2-1.2,3.2-3s-1.1-2.9-3.2-2.9h-2.8ZM276.2,144.8c0-2-1.3-3.3-3.3-3.3h-4.2v6.6h4.2c2,0,3.3-1.3,3.3-3.4"/>
  <path class="cls-1" d="M299.7,146.9h-7.3l-1.4,5.1h-4.4l7.5-24.2h4.1l7.4,24.2h-4.4l-1.4-5.1ZM298.6,143l-2.6-9.1-2.6,9.1h5.1Z"/>
  <polygon class="cls-1" points="329.7 127.9 329.7 152 326 152 317.3 136.1 317.3 152 313.1 152 313.1 127.9 317 127.9 325.6 143.2 325.6 127.9 329.7 127.9"/>
  <path class="cls-1" d="M347,127.8c5.2,0,8.3,3.5,8.3,8v8.2c0,4.6-3.1,8-8.3,8h-7.5v-24.2h7.5ZM343.7,148.1h3.3c2.7,0,4.2-1.7,4.2-4.1v-8.2c0-2.4-1.5-4.1-4.2-4.1h-3.3v16.4Z"/>
  <path class="cls-4" d="M79.8,103.6c-2-2-3-4.6-3-7.4v-54.4c0-5.7,4.7-10.4,10.4-10.4s10.4,4.7,10.4,10.4v44h44c5.7,0,10.4,4.7,10.4,10.4s-4.7,10.4-10.4,10.4h-54.4c-2.8,0-5.4-1.1-7.4-3"/>
  <path class="cls-1" d="M70,104.5c0-2.8-1.1-5.4-3-7.4L28.4,58.7c-4.1-4.1-10.6-4.1-14.7,0-4.1,4.1-4.1,10.7,0,14.7l31.1,31.1-31.1,31.1c-4.1,4.1-4.1,10.6,0,14.7,4.1,4.1,10.6,4.1,14.7,0l38.5-38.5c2-2,3-4.6,3-7.4"/>
  <path class="cls-3" d="M117.4,172.8c-2.8,0-5.4-1.1-7.4-3l-38.5-38.5c-4.1-4.1-4.1-10.6,0-14.7s10.7-4.1,14.7,0l31.1,31.1,31.1-31.1c4.1-4.1,10.6-4.1,14.7,0s4.1,10.6,0,14.7l-38.5,38.5c-2,2-4.6,3-7.4,3"/>
</svg>