<svg width="652" height="592" viewBox="0 0 652 592" fill="none" xmlns="http://www.w3.org/2000/svg">
<g id="Bungertstadion">
<path id="Stadiongrundfl&#195;&#164;che" d="M185.606 539.5L7.10645 411.5L87.9982 298.449L134.083 331.321L269.74 140.712L239.896 119.593L339.737 -20.3429L586.816 156.135L289.135 570.724L206.106 511.5L185.606 539.5Z" fill="#58944E" stroke="black"/>
<rect id="Tarten Auslauf" x="163.146" y="306.303" width="44" height="78" transform="rotate(35.5 163.146 306.303)" fill="#D55E5E"/>
<path id="Tartan Rundbahnen" d="M481.175 83.8296C535.113 122.304 548.45 196.79 513.707 254.704L512.877 256.069L368.878 457.948C325.59 510.696 250.002 522.802 195.638 484.025C142.927 446.426 128.955 374.191 160.761 316.877L166.364 308.593L311.587 104.998C355.422 56.2621 428.461 46.2295 481.175 83.8296Z" fill="#D55E5E" stroke="black" stroke-width="0.4"/>
<path id="Innenraum - Rasen" d="M467.028 103.281C510.806 134.507 522.356 194.327 494.461 240.468L348.069 445.591C313.524 486.989 253.202 495.543 209.423 464.316C166.827 433.933 154.967 376.253 180.057 330.655L185.939 322.565L185.94 322.563L331.592 118.478C366.534 79.9055 424.427 72.894 467.028 103.281Z" fill="#7A936A" stroke="black" stroke-width="0.5"/>
<circle id="Kugelsto&#195;&#159;en" cx="312.967" cy="451.863" r="3.5" transform="rotate(35.5 312.967 451.863)" fill="#D9D9D9"/>
<g id="Weitsprung">
<g id="Vector" filter="url(#filter0_d_4201_88)">
<path d="M380.031 123.216L506.002 213.347C508.17 205.32 509.34 197.044 509.563 188.895L492.385 176.642L485.826 176.749L390.484 108.563L380.031 123.216Z" fill="#D55E5E"/>
<path d="M506.002 213.347L380.031 123.216L390.484 108.563L485.826 176.749L492.385 176.642L509.563 188.895C509.34 197.044 508.17 205.32 506.002 213.347ZM506.002 213.347C505.99 213.391 506.013 213.303 506.002 213.347Z" stroke="black" stroke-width="0.5"/>
</g>
<line id="Line 43" x1="385.304" y1="113.153" x2="508.647" y2="201.296" stroke="black" stroke-width="0.5"/>
<line id="Line 45" x1="507.436" y1="207.126" x2="382.109" y2="117.632" stroke="black" stroke-width="0.5"/>
<g id="Vector_2">
<path d="M369.119 93.309L390.286 108.407L379.833 123.061L358.666 107.963L369.119 93.309Z" fill="#D9DB89"/>
<path d="M493.277 177.339L509.559 188.953M369.119 93.309L390.286 108.407L379.833 123.061L358.666 107.963L369.119 93.309Z" stroke="black" stroke-width="0.5"/>
</g>
</g>
<g id="Wassergraben">
<path id="Vector_3" d="M494.957 133.327C501.701 144.509 506.129 156.807 508.22 169.571L507.252 167.77L505.179 163.82L505.179 163.817L504.588 162.725L504.585 162.72L503.237 160.358L502.106 158.369L502.105 158.366L502.105 158.365L502.104 158.364C502.103 158.363 502.103 158.361 502.101 158.359C502.099 158.355 502.095 158.348 502.09 158.34C502.079 158.323 502.064 158.297 502.044 158.263C502.004 158.196 501.944 158.096 501.867 157.969C501.712 157.714 501.488 157.346 501.206 156.894C500.642 155.99 499.848 154.748 498.929 153.4C497.094 150.708 494.746 147.566 492.722 145.833L492.716 145.828L492.709 145.822L414.459 90.018C413.046 89.0101 410.742 88.105 408.811 87.4554C407.842 87.1294 406.96 86.8651 406.32 86.6827C406.001 86.5916 405.741 86.521 405.562 86.4729C405.472 86.4488 405.401 86.4305 405.354 86.4181C405.33 86.4119 405.312 86.4079 405.3 86.4047C405.294 86.4031 405.289 86.4016 405.286 86.4007C405.285 86.4004 405.284 86.4 405.283 86.3998L405.281 86.4001L405.281 86.3995L405.276 86.3988L403.904 86.0858L402.273 85.7105L402.267 85.71L401.52 85.5593L401.517 85.5584L398.825 85.0595L398.817 85.0587L398.446 85.0031C408.855 83.9859 419.411 84.5475 429.731 86.7573L494.957 133.327Z" fill="#D55E5E" stroke="black" stroke-width="0.4"/>
<line id="Absprungbalken" x1="451.566" y1="102.14" x2="444.772" y2="111.665" stroke="black" stroke-width="0.5"/>
<rect id="Wassergraben Wasser" x="446.246" y="98.8358" width="6" height="11.1" transform="rotate(35.5 446.246 98.8358)" fill="#6564A7"/>
</g>
<g id="Verl&#195;&#164;ngerung Bahnen Hauptgerade">
<rect id="Hauptgerade Tartan" x="351.293" y="42.5297" width="28" height="324" transform="rotate(35.5 351.293 42.5297)" fill="#D55E5E"/>
<line id="Bahn 5/6" x1="313.672" y1="109.048" x2="357.806" y2="47.1755" stroke="black" stroke-width="0.4"/>
<line id="Bahn 4/5" x1="315.759" y1="112.993" x2="361.054" y2="49.4923" stroke="black" stroke-width="0.4"/>
<line id="Bahn 3/4" x1="320.725" y1="112.851" x2="364.278" y2="51.792" stroke="black" stroke-width="0.4"/>
<line id="Bahn 2/3" x1="322.24" y1="117.616" x2="367.534" y2="54.1148" stroke="black" stroke-width="0.4"/>
<line id="Bahn 1/2" x1="327.23" y1="117.491" x2="370.782" y2="56.4319" stroke="black" stroke-width="0.4"/>
<line id="Bahn 6/7" x1="310.793" y1="105.766" x2="354.346" y2="44.7074" stroke="black" stroke-width="0.4"/>
<line id="Bahn 6/7_2" x1="117.647" y1="369.66" x2="351.09" y2="42.3856" stroke="black" stroke-width="0.5"/>
<line id="Bahn 1 nach Innen" x1="332.423" y1="117.511" x2="373.92" y2="58.6711" stroke="black" stroke-width="0.4"/>
<line id="Ziellinie" x1="163.291" y1="306.1" x2="186.086" y2="322.36" stroke="black" stroke-width="0.5"/>
<line id="100m Start" x1="328.21" y1="74.8908" x2="351.005" y2="91.1505" stroke="black" stroke-width="0.5"/>
<path id="110m Start" d="M344.034 52.7062L366.829 68.9659" stroke="black" stroke-width="0.5"/>
<path id="110m Start_2" d="M351.031 42.0358L374.234 58.5859" stroke="black" stroke-width="0.5"/>
</g>
<g id="Bahnen Kurve Unten">
<path id="Bahn 1/2_2" d="M469.38 99.9831C515.236 132.692 526.847 195.801 497.029 243.876L352.237 446.836C316.489 490.682 252.928 500.322 207.072 467.613C162.728 435.982 150.543 375.987 176.744 328.586L182.693 320.246L327.962 116.484C364.25 76.2791 425.036 68.3529 469.38 99.9831Z" stroke="black" stroke-width="0.4"/>
<path id="Bahn 2/3_2" d="M471.704 96.7267C519.148 130.568 531.382 195.818 500.804 245.615L355 449.911C317.872 495.035 252.194 504.712 204.749 470.87C158.747 438.057 146.361 375.718 173.503 326.568L179.439 317.92L325.142 113.551C362.777 71.894 425.703 63.9148 471.704 96.7267Z" stroke="black" stroke-width="0.4"/>
<path id="Bahn 3/4_2" d="M474.229 93.6146C523.404 128.691 535.607 196.346 503.696 248.275L358.52 451.804C319.809 498.883 251.804 509.347 202.628 474.27C155.313 440.521 142.038 376.478 169.525 325.424L170.182 324.221L173.186 319.608L176.13 315.567L321.598 111.63C360.823 68.1505 426.545 59.6019 474.229 93.6146Z" stroke="black" stroke-width="0.4"/>
<path id="Bahn 4/5_2" d="M476.543 90.3523C527.052 126.38 539.911 195.584 507.147 250.137L506.371 251.412L362.357 453.313C321.579 503.037 251.201 513.831 200.297 477.522C151.321 442.587 138.093 375.571 167.215 321.784L167.911 320.516L170.29 316.808L172.847 313.224L317.501 110.568C358.782 64.6057 427.183 55.1442 476.543 90.3523Z" stroke="black" stroke-width="0.4"/>
<path id="Bahn 5/6_2" d="M478.86 87.0911C531.084 124.343 544.341 195.964 510.431 252.416L509.621 253.746L365.622 455.625C323.428 507.093 250.605 518.317 197.969 480.773C146.932 444.369 133.463 374.237 164.534 318.363L169.661 310.947L314.247 108.246C356.96 60.6785 427.823 50.6875 478.86 87.0911Z" stroke="black" stroke-width="0.4"/>
<path id="Bahn 6/7_3" d="M166.199 308.481L311.433 104.871C355.331 56.0585 428.488 46.0021 481.292 83.6667C535.747 122.509 548.881 197.988 513.048 256.174L369.034 458.075C325.684 510.899 249.978 523.03 195.522 484.187C142.719 446.523 128.735 374.166 160.595 316.767L166.24 308.51" stroke="black" stroke-width="0.4"/>
</g>
<g id="Innenraum Unten">
<path id="Tartan Innenraum Unten" d="M324.32 466.655C289.81 488.856 244.331 489.277 209.395 464.357C174.571 439.518 160.291 396.339 169.924 356.525L324.32 466.655Z" fill="#D55E5E" stroke="black" stroke-width="0.4"/>
<g id="Diskus">
<line id="Diskus Sektor" x1="270.406" y1="458.695" x2="271.636" y2="429.221" stroke="black" stroke-width="0.5"/>
<line id="Diskus Sektor_2" x1="290.575" y1="442.706" x2="273.077" y2="459.132" stroke="black" stroke-width="0.5"/>
<circle id="Diskus/Hammer Ring" cx="269.962" cy="460.493" r="3.5" transform="rotate(35.5 269.962 460.493)" fill="#D9D9D9"/>
</g>
<rect id="Hochsprung" x="227.483" y="386.588" width="20" height="14" transform="rotate(35.5 227.483 386.588)" fill="#D9D9D9"/>
<g id="Speerwurf">
<line id="Line 46" x1="219.895" y1="470.843" x2="257.06" y2="418.74" stroke="black" stroke-width="0.5"/>
<line id="Line 47" x1="231.64" y1="476.764" x2="267.644" y2="426.289" stroke="black" stroke-width="0.5"/>
</g>
</g>
<path id="Auslauf" d="M117.873 369.514L143.868 388.056" stroke="black" stroke-width="0.5"/>
<g id="Weitsprung unten">
<rect id="Rectangle 19" x="39.1033" y="379.806" width="20.8245" height="12.3082" transform="rotate(35.5 39.1033 379.806)" fill="#D9DB89" stroke="black" stroke-width="0.5"/>
<rect id="Rectangle 20" x="53.8669" y="395.107" width="59.4839" height="3.87255" transform="rotate(35.5 53.8669 395.107)" fill="#D55E5E" stroke="black" stroke-width="0.5"/>
</g>
<rect id="Garage" x="334.82" y="11.8443" width="22.3853" height="43.944" rx="0.5" transform="rotate(35.5 334.82 11.8443)" fill="#D9D9D9" stroke="black"/>
<rect id="HDL" x="144.789" y="245.091" width="41.047" height="75.9113" rx="0.5" transform="rotate(35.5 144.789 245.091)" fill="#D9D9D9" stroke="black"/>
<rect id="Fu&#195;&#159;baller" x="166.121" y="222.86" width="36.6647" height="29.7043" rx="0.5" transform="rotate(35.5 166.121 222.86)" fill="#D9D9D9" stroke="black"/>
<rect id="Trib&#195;&#188;ne" x="249.381" y="126.541" width="24.9742" height="126.675" rx="0.5" transform="rotate(35.5 249.381 126.541)" fill="#D9D9D9" stroke="black"/>
<g id="B&#195;&#164;ume">
<g id="Baum">
<path id="Ellipse 23" d="M114.106 463.1C119.303 463.1 123.507 467.09 123.507 472C123.507 476.91 119.303 480.9 114.106 480.9C108.91 480.9 104.706 476.91 104.706 472C104.706 467.09 108.91 463.1 114.106 463.1Z" fill="#808080" stroke="black" stroke-width="0.2"/>
<ellipse id="Ellipse 24" cx="117.106" cy="468" rx="9.5" ry="9" fill="#0FD323"/>
</g>
<g id="Baum_2">
<path id="Ellipse 23_2" d="M554.106 156.1C559.303 156.1 563.507 160.09 563.507 165C563.507 169.91 559.303 173.9 554.106 173.9C548.91 173.9 544.706 169.91 544.706 165C544.706 160.09 548.91 156.1 554.106 156.1Z" fill="#808080" stroke="black" stroke-width="0.2"/>
<ellipse id="Ellipse 24_2" cx="557.106" cy="161" rx="9.5" ry="9" fill="#0FD323"/>
</g>
<g id="Baum_3">
<path id="Ellipse 23_3" d="M296.106 62.0996C301.303 62.0996 305.507 66.0897 305.507 71C305.507 75.9103 301.303 79.9004 296.106 79.9004C290.91 79.9004 286.706 75.9103 286.706 71C286.706 66.0897 290.91 62.0996 296.106 62.0996Z" fill="#808080" stroke="black" stroke-width="0.2"/>
<ellipse id="Ellipse 24_3" cx="299.106" cy="67" rx="9.5" ry="9" fill="#0FD323"/>
</g>
<g id="Baum_4">
<path id="Ellipse 23_4" d="M280.106 80.0996C285.303 80.0996 289.507 84.0897 289.507 89C289.507 93.9103 285.303 97.9004 280.106 97.9004C274.91 97.9004 270.706 93.9103 270.706 89C270.706 84.0897 274.91 80.0996 280.106 80.0996Z" fill="#808080" stroke="black" stroke-width="0.2"/>
<ellipse id="Ellipse 24_4" cx="283.106" cy="85" rx="9.5" ry="9" fill="#0FD323"/>
</g>
<g id="Baum_5">
<path id="Ellipse 23_5" d="M284.106 534.1C289.303 534.1 293.507 538.09 293.507 543C293.507 547.91 289.303 551.9 284.106 551.9C278.91 551.9 274.706 547.91 274.706 543C274.706 538.09 278.91 534.1 284.106 534.1Z" fill="#808080" stroke="black" stroke-width="0.2"/>
<ellipse id="Ellipse 24_5" cx="287.106" cy="539" rx="9.5" ry="9" fill="#0FD323"/>
</g>
<g id="Baum_6">
<path id="Ellipse 23_6" d="M80.1064 340.1C85.3031 340.1 89.5068 344.09 89.5068 349C89.5068 353.91 85.3031 357.9 80.1064 357.9C74.9098 357.9 70.7061 353.91 70.7061 349C70.7061 344.09 74.9098 340.1 80.1064 340.1Z" fill="#808080" stroke="black" stroke-width="0.2"/>
<ellipse id="Ellipse 24_6" cx="83.1064" cy="345" rx="9.5" ry="9" fill="#0FD323"/>
</g>
</g>
</g>
<defs>
<filter id="filter0_d_4201_88" x="375.683" y="108.214" width="138.135" height="113.546" filterUnits="userSpaceOnUse" color-interpolation-filters="sRGB">
<feFlood flood-opacity="0" result="BackgroundImageFix"/>
<feColorMatrix in="SourceAlpha" type="matrix" values="0 0 0 0 0 0 0 0 0 0 0 0 0 0 0 0 0 0 127 0" result="hardAlpha"/>
<feOffset dy="4"/>
<feGaussianBlur stdDeviation="2"/>
<feComposite in2="hardAlpha" operator="out"/>
<feColorMatrix type="matrix" values="0 0 0 0 0 0 0 0 0 0 0 0 0 0 0 0 0 0 0.25 0"/>
<feBlend mode="normal" in2="BackgroundImageFix" result="effect1_dropShadow_4201_88"/>
<feBlend mode="normal" in="SourceGraphic" in2="effect1_dropShadow_4201_88" result="shape"/>
</filter>
</defs>
</svg>
